<mxfile host="app.diagrams.net" agent="Mozilla/5.0 (Windows NT 10.0; Win64; x64) AppleWebKit/537.36 (KHTML, like Gecko) Chrome/132.0.0.0 Safari/537.36" version="26.0.13">
  <diagram name="Page-1" id="qEPpOTGTCNY5_p1U7Fa_">
    <mxGraphModel dx="1434" dy="746" grid="1" gridSize="10" guides="1" tooltips="1" connect="1" arrows="1" fold="1" page="1" pageScale="1" pageWidth="850" pageHeight="1100" math="0" shadow="0">
      <root>
        <mxCell id="0" />
        <mxCell id="1" parent="0" />
        <mxCell id="QOCwkZVWmm1gbLnobCOZ-17" value="" style="rounded=1;whiteSpace=wrap;html=1;" parent="1" vertex="1">
          <mxGeometry x="470" y="150" width="280" height="300" as="geometry" />
        </mxCell>
        <mxCell id="QOCwkZVWmm1gbLnobCOZ-15" value="" style="rounded=1;whiteSpace=wrap;html=1;" parent="1" vertex="1">
          <mxGeometry x="80" y="450" width="280" height="300" as="geometry" />
        </mxCell>
        <mxCell id="QOCwkZVWmm1gbLnobCOZ-1" value="" style="shape=mxgraph.cisco.routers.router;sketch=0;html=1;pointerEvents=1;dashed=0;fillColor=#036897;strokeColor=#ffffff;strokeWidth=2;verticalLabelPosition=bottom;verticalAlign=top;align=center;outlineConnect=0;" parent="1" vertex="1">
          <mxGeometry x="181" y="580" width="78" height="53" as="geometry" />
        </mxCell>
        <mxCell id="QOCwkZVWmm1gbLnobCOZ-2" value="" style="shape=mxgraph.cisco.routers.router;sketch=0;html=1;pointerEvents=1;dashed=0;fillColor=#036897;strokeColor=#ffffff;strokeWidth=2;verticalLabelPosition=bottom;verticalAlign=top;align=center;outlineConnect=0;" parent="1" vertex="1">
          <mxGeometry x="570" y="280" width="80" height="50" as="geometry" />
        </mxCell>
        <mxCell id="QOCwkZVWmm1gbLnobCOZ-3" value="" style="endArrow=none;html=1;rounded=0;exitX=1;exitY=0.5;exitDx=0;exitDy=0;exitPerimeter=0;entryX=0;entryY=0.5;entryDx=0;entryDy=0;entryPerimeter=0;" parent="1" source="QOCwkZVWmm1gbLnobCOZ-1" target="QOCwkZVWmm1gbLnobCOZ-2" edge="1">
          <mxGeometry width="50" height="50" relative="1" as="geometry">
            <mxPoint x="400" y="410" as="sourcePoint" />
            <mxPoint x="450" y="360" as="targetPoint" />
          </mxGeometry>
        </mxCell>
        <mxCell id="QOCwkZVWmm1gbLnobCOZ-4" value="" style="endArrow=none;html=1;rounded=0;entryX=0;entryY=0.5;entryDx=0;entryDy=0;entryPerimeter=0;" parent="1" target="QOCwkZVWmm1gbLnobCOZ-1" edge="1">
          <mxGeometry width="50" height="50" relative="1" as="geometry">
            <mxPoint x="131" y="607" as="sourcePoint" />
            <mxPoint x="391" y="660" as="targetPoint" />
          </mxGeometry>
        </mxCell>
        <mxCell id="QOCwkZVWmm1gbLnobCOZ-5" value="HQ" style="text;html=1;align=center;verticalAlign=middle;whiteSpace=wrap;rounded=0;fontStyle=1" parent="1" vertex="1">
          <mxGeometry x="190" y="530" width="60" height="30" as="geometry" />
        </mxCell>
        <mxCell id="QOCwkZVWmm1gbLnobCOZ-6" value="ISP01" style="text;html=1;align=center;verticalAlign=middle;whiteSpace=wrap;rounded=0;" parent="1" vertex="1">
          <mxGeometry x="580" y="230" width="60" height="30" as="geometry" />
        </mxCell>
        <mxCell id="QOCwkZVWmm1gbLnobCOZ-7" value="192.168.1.0/24" style="text;html=1;align=center;verticalAlign=middle;whiteSpace=wrap;rounded=0;" parent="1" vertex="1">
          <mxGeometry x="81" y="570" width="80" height="30" as="geometry" />
        </mxCell>
        <mxCell id="QOCwkZVWmm1gbLnobCOZ-8" value="" style="ellipse;whiteSpace=wrap;html=1;aspect=fixed;" parent="1" vertex="1">
          <mxGeometry x="121" y="601.5" width="10" height="10" as="geometry" />
        </mxCell>
        <mxCell id="QOCwkZVWmm1gbLnobCOZ-9" value="1.1.1.2/30" style="text;html=1;align=center;verticalAlign=middle;whiteSpace=wrap;rounded=0;" parent="1" vertex="1">
          <mxGeometry x="259" y="530" width="60" height="30" as="geometry" />
        </mxCell>
        <mxCell id="QOCwkZVWmm1gbLnobCOZ-10" value="1.1.1.1/30" style="text;html=1;align=center;verticalAlign=middle;whiteSpace=wrap;rounded=0;" parent="1" vertex="1">
          <mxGeometry x="490" y="270" width="60" height="30" as="geometry" />
        </mxCell>
        <mxCell id="QOCwkZVWmm1gbLnobCOZ-16" value="BGP AS Group 65000" style="text;html=1;align=center;verticalAlign=middle;whiteSpace=wrap;rounded=0;" parent="1" vertex="1">
          <mxGeometry x="164.5" y="460" width="111" height="30" as="geometry" />
        </mxCell>
        <mxCell id="QOCwkZVWmm1gbLnobCOZ-18" value="BGP AS Group&lt;div&gt;65100&lt;/div&gt;" style="text;html=1;align=center;verticalAlign=middle;whiteSpace=wrap;rounded=0;" parent="1" vertex="1">
          <mxGeometry x="560" y="160" width="90" height="30" as="geometry" />
        </mxCell>
        <mxCell id="eMSyhN8ogLp02Z22tpgn-1" value="" style="rounded=1;whiteSpace=wrap;html=1;" parent="1" vertex="1">
          <mxGeometry x="470" y="750" width="280" height="300" as="geometry" />
        </mxCell>
        <mxCell id="eMSyhN8ogLp02Z22tpgn-2" value="" style="shape=mxgraph.cisco.routers.router;sketch=0;html=1;pointerEvents=1;dashed=0;fillColor=#036897;strokeColor=#ffffff;strokeWidth=2;verticalLabelPosition=bottom;verticalAlign=top;align=center;outlineConnect=0;" parent="1" vertex="1">
          <mxGeometry x="570" y="880" width="80" height="50" as="geometry" />
        </mxCell>
        <mxCell id="eMSyhN8ogLp02Z22tpgn-3" value="ISP02" style="text;html=1;align=center;verticalAlign=middle;whiteSpace=wrap;rounded=0;" parent="1" vertex="1">
          <mxGeometry x="580" y="830" width="60" height="30" as="geometry" />
        </mxCell>
        <mxCell id="eMSyhN8ogLp02Z22tpgn-4" value="2.2.2.1/30" style="text;html=1;align=center;verticalAlign=middle;whiteSpace=wrap;rounded=0;" parent="1" vertex="1">
          <mxGeometry x="480" y="890" width="60" height="30" as="geometry" />
        </mxCell>
        <mxCell id="eMSyhN8ogLp02Z22tpgn-8" value="BGP AS Group&lt;div&gt;65200&lt;/div&gt;" style="text;html=1;align=center;verticalAlign=middle;whiteSpace=wrap;rounded=0;" parent="1" vertex="1">
          <mxGeometry x="560" y="760" width="90" height="30" as="geometry" />
        </mxCell>
        <mxCell id="eMSyhN8ogLp02Z22tpgn-9" value="" style="endArrow=none;html=1;rounded=0;entryX=1;entryY=0.5;entryDx=0;entryDy=0;entryPerimeter=0;exitX=0;exitY=0.5;exitDx=0;exitDy=0;exitPerimeter=0;" parent="1" source="eMSyhN8ogLp02Z22tpgn-2" target="QOCwkZVWmm1gbLnobCOZ-1" edge="1">
          <mxGeometry width="50" height="50" relative="1" as="geometry">
            <mxPoint x="400" y="610" as="sourcePoint" />
            <mxPoint x="450" y="560" as="targetPoint" />
          </mxGeometry>
        </mxCell>
        <mxCell id="eMSyhN8ogLp02Z22tpgn-10" value="2.2.2.2/30" style="text;html=1;align=center;verticalAlign=middle;whiteSpace=wrap;rounded=0;" parent="1" vertex="1">
          <mxGeometry x="230" y="650" width="60" height="30" as="geometry" />
        </mxCell>
        <mxCell id="ggdpZYfElTCC1WEsg3KB-2" value="" style="rounded=1;whiteSpace=wrap;html=1;" parent="1" vertex="1">
          <mxGeometry x="900" y="456.5" width="280" height="300" as="geometry" />
        </mxCell>
        <mxCell id="ggdpZYfElTCC1WEsg3KB-3" value="" style="shape=mxgraph.cisco.routers.router;sketch=0;html=1;pointerEvents=1;dashed=0;fillColor=#036897;strokeColor=#ffffff;strokeWidth=2;verticalLabelPosition=bottom;verticalAlign=top;align=center;outlineConnect=0;" parent="1" vertex="1">
          <mxGeometry x="1001" y="586.5" width="78" height="53" as="geometry" />
        </mxCell>
        <mxCell id="ggdpZYfElTCC1WEsg3KB-4" value="" style="endArrow=none;html=1;rounded=0;exitX=0.5;exitY=1;exitDx=0;exitDy=0;exitPerimeter=0;" parent="1" source="ggdpZYfElTCC1WEsg3KB-7" edge="1">
          <mxGeometry width="50" height="50" relative="1" as="geometry">
            <mxPoint x="1084" y="613" as="sourcePoint" />
            <mxPoint x="1040" y="690" as="targetPoint" />
          </mxGeometry>
        </mxCell>
        <mxCell id="ggdpZYfElTCC1WEsg3KB-5" value="ISP03" style="text;html=1;align=center;verticalAlign=middle;whiteSpace=wrap;rounded=0;fontStyle=1" parent="1" vertex="1">
          <mxGeometry x="1010" y="536.5" width="60" height="30" as="geometry" />
        </mxCell>
        <mxCell id="ggdpZYfElTCC1WEsg3KB-6" value="8.8.8.8/32" style="text;html=1;align=center;verticalAlign=middle;whiteSpace=wrap;rounded=0;" parent="1" vertex="1">
          <mxGeometry x="1045" y="660" width="80" height="30" as="geometry" />
        </mxCell>
        <mxCell id="ggdpZYfElTCC1WEsg3KB-8" value="3.3.3.1/30" style="text;html=1;align=center;verticalAlign=middle;whiteSpace=wrap;rounded=0;" parent="1" vertex="1">
          <mxGeometry x="920" y="566.5" width="60" height="30" as="geometry" />
        </mxCell>
        <mxCell id="ggdpZYfElTCC1WEsg3KB-9" value="BGP AS Group 65300" style="text;html=1;align=center;verticalAlign=middle;whiteSpace=wrap;rounded=0;" parent="1" vertex="1">
          <mxGeometry x="984.5" y="466.5" width="111" height="30" as="geometry" />
        </mxCell>
        <mxCell id="ggdpZYfElTCC1WEsg3KB-11" value="" style="endArrow=none;html=1;rounded=0;entryX=1;entryY=0.5;entryDx=0;entryDy=0;entryPerimeter=0;exitX=0.12;exitY=0.1;exitDx=0;exitDy=0;exitPerimeter=0;" parent="1" source="ggdpZYfElTCC1WEsg3KB-3" target="QOCwkZVWmm1gbLnobCOZ-2" edge="1">
          <mxGeometry width="50" height="50" relative="1" as="geometry">
            <mxPoint x="740" y="610" as="sourcePoint" />
            <mxPoint x="790" y="560" as="targetPoint" />
          </mxGeometry>
        </mxCell>
        <mxCell id="ggdpZYfElTCC1WEsg3KB-12" value="" style="endArrow=none;html=1;rounded=0;entryX=0.12;entryY=0.9;entryDx=0;entryDy=0;entryPerimeter=0;exitX=1;exitY=0.5;exitDx=0;exitDy=0;exitPerimeter=0;" parent="1" source="eMSyhN8ogLp02Z22tpgn-2" target="ggdpZYfElTCC1WEsg3KB-3" edge="1">
          <mxGeometry width="50" height="50" relative="1" as="geometry">
            <mxPoint x="740" y="810" as="sourcePoint" />
            <mxPoint x="790" y="760" as="targetPoint" />
          </mxGeometry>
        </mxCell>
        <mxCell id="ggdpZYfElTCC1WEsg3KB-13" value="3.3.2.2/30" style="text;html=1;align=center;verticalAlign=middle;whiteSpace=wrap;rounded=0;" parent="1" vertex="1">
          <mxGeometry x="680" y="890" width="60" height="30" as="geometry" />
        </mxCell>
        <mxCell id="ggdpZYfElTCC1WEsg3KB-14" value="3.3.2.1/30" style="text;html=1;align=center;verticalAlign=middle;whiteSpace=wrap;rounded=0;" parent="1" vertex="1">
          <mxGeometry x="941" y="680" width="60" height="30" as="geometry" />
        </mxCell>
        <mxCell id="ggdpZYfElTCC1WEsg3KB-15" value="3.3.3.2/30" style="text;html=1;align=center;verticalAlign=middle;whiteSpace=wrap;rounded=0;" parent="1" vertex="1">
          <mxGeometry x="660" y="270" width="60" height="30" as="geometry" />
        </mxCell>
        <mxCell id="0DsNt4XHMaP194P-OPa6-1" value="" style="endArrow=none;html=1;rounded=0;exitX=0.5;exitY=1;exitDx=0;exitDy=0;exitPerimeter=0;" edge="1" parent="1" source="ggdpZYfElTCC1WEsg3KB-3" target="ggdpZYfElTCC1WEsg3KB-7">
          <mxGeometry width="50" height="50" relative="1" as="geometry">
            <mxPoint x="1040" y="640" as="sourcePoint" />
            <mxPoint x="1040" y="690" as="targetPoint" />
          </mxGeometry>
        </mxCell>
        <mxCell id="ggdpZYfElTCC1WEsg3KB-7" value="" style="ellipse;whiteSpace=wrap;html=1;aspect=fixed;" parent="1" vertex="1">
          <mxGeometry x="1035" y="680" width="10" height="10" as="geometry" />
        </mxCell>
        <mxCell id="0DsNt4XHMaP194P-OPa6-2" value="" style="rounded=1;whiteSpace=wrap;html=1;" vertex="1" parent="1">
          <mxGeometry x="1350" y="456.5" width="280" height="300" as="geometry" />
        </mxCell>
        <mxCell id="0DsNt4XHMaP194P-OPa6-3" value="" style="shape=mxgraph.cisco.routers.router;sketch=0;html=1;pointerEvents=1;dashed=0;fillColor=#036897;strokeColor=#ffffff;strokeWidth=2;verticalLabelPosition=bottom;verticalAlign=top;align=center;outlineConnect=0;" vertex="1" parent="1">
          <mxGeometry x="1451" y="586.5" width="78" height="53" as="geometry" />
        </mxCell>
        <mxCell id="0DsNt4XHMaP194P-OPa6-4" value="" style="endArrow=none;html=1;rounded=0;entryX=0.5;entryY=1;entryDx=0;entryDy=0;entryPerimeter=0;" edge="1" parent="1" target="0DsNt4XHMaP194P-OPa6-3" source="0DsNt4XHMaP194P-OPa6-7">
          <mxGeometry width="50" height="50" relative="1" as="geometry">
            <mxPoint x="1490" y="680" as="sourcePoint" />
            <mxPoint x="1661" y="666.5" as="targetPoint" />
          </mxGeometry>
        </mxCell>
        <mxCell id="0DsNt4XHMaP194P-OPa6-5" value="HQ" style="text;html=1;align=center;verticalAlign=middle;whiteSpace=wrap;rounded=0;fontStyle=1" vertex="1" parent="1">
          <mxGeometry x="1460" y="536.5" width="60" height="30" as="geometry" />
        </mxCell>
        <mxCell id="0DsNt4XHMaP194P-OPa6-6" value="192.168.2.0/24" style="text;html=1;align=center;verticalAlign=middle;whiteSpace=wrap;rounded=0;" vertex="1" parent="1">
          <mxGeometry x="1500" y="650" width="80" height="30" as="geometry" />
        </mxCell>
        <mxCell id="0DsNt4XHMaP194P-OPa6-9" value="BGP AS Group 65000" style="text;html=1;align=center;verticalAlign=middle;whiteSpace=wrap;rounded=0;" vertex="1" parent="1">
          <mxGeometry x="1434.5" y="466.5" width="111" height="30" as="geometry" />
        </mxCell>
        <mxCell id="0DsNt4XHMaP194P-OPa6-11" value="" style="endArrow=none;html=1;rounded=0;entryX=0.5;entryY=1;entryDx=0;entryDy=0;entryPerimeter=0;" edge="1" parent="1" target="0DsNt4XHMaP194P-OPa6-7">
          <mxGeometry width="50" height="50" relative="1" as="geometry">
            <mxPoint x="1490" y="680" as="sourcePoint" />
            <mxPoint x="1490" y="640" as="targetPoint" />
          </mxGeometry>
        </mxCell>
        <mxCell id="0DsNt4XHMaP194P-OPa6-7" value="" style="ellipse;whiteSpace=wrap;html=1;aspect=fixed;" vertex="1" parent="1">
          <mxGeometry x="1485" y="670" width="10" height="10" as="geometry" />
        </mxCell>
        <mxCell id="0DsNt4XHMaP194P-OPa6-12" value="" style="endArrow=none;html=1;rounded=0;entryX=0;entryY=0.5;entryDx=0;entryDy=0;entryPerimeter=0;exitX=1;exitY=0.5;exitDx=0;exitDy=0;exitPerimeter=0;" edge="1" parent="1" source="ggdpZYfElTCC1WEsg3KB-3" target="0DsNt4XHMaP194P-OPa6-3">
          <mxGeometry width="50" height="50" relative="1" as="geometry">
            <mxPoint x="1120" y="630" as="sourcePoint" />
            <mxPoint x="1170" y="580" as="targetPoint" />
          </mxGeometry>
        </mxCell>
        <mxCell id="0DsNt4XHMaP194P-OPa6-13" value="4.4.4.1/30" style="text;html=1;align=center;verticalAlign=middle;whiteSpace=wrap;rounded=0;" vertex="1" parent="1">
          <mxGeometry x="1079" y="580" width="60" height="30" as="geometry" />
        </mxCell>
        <mxCell id="0DsNt4XHMaP194P-OPa6-14" value="4.4.4.2/30" style="text;html=1;align=center;verticalAlign=middle;whiteSpace=wrap;rounded=0;" vertex="1" parent="1">
          <mxGeometry x="1370" y="571.5" width="60" height="30" as="geometry" />
        </mxCell>
      </root>
    </mxGraphModel>
  </diagram>
</mxfile>
